<svg width="16" height="16" viewBox="0 0 16 16" fill="none" xmlns="http://www.w3.org/2000/svg">
<path fill-rule="evenodd" clip-rule="evenodd" d="M7.99996 0C5.04337 0 2.66663 2.4363 2.66663 5.41667C2.66663 6.93413 3.51001 8.7194 4.50244 10.0841C5.00751 10.7787 5.57847 11.4029 6.15137 11.861C6.69963 12.2993 7.35023 12.6667 7.99996 12.6667C8.64969 12.6667 9.30029 12.2993 9.84856 11.861C10.4214 11.4029 10.9924 10.7787 11.4975 10.0841C12.4899 8.7194 13.3333 6.93413 13.3333 5.41667C13.3333 2.4363 10.9566 0 7.99996 0ZM5.99996 5.33333C5.99996 4.22877 6.89536 3.33333 7.99996 3.33333C9.10456 3.33333 9.99996 4.22877 9.99996 5.33333C9.99996 6.4379 9.10456 7.33333 7.99996 7.33333C6.89536 7.33333 5.99996 6.4379 5.99996 5.33333Z" fill="#4B5563"/>
<path d="M8 16C8.55228 16 9 15.5523 9 15C9 14.4477 8.55228 14 8 14C7.44772 14 7 14.4477 7 15C7 15.5523 7.44772 16 8 16Z" fill="#4B5563"/>
</svg>
