<svg width="12" height="13" viewBox="0 0 12 13" fill="none" xmlns="http://www.w3.org/2000/svg">
<path fill-rule="evenodd" clip-rule="evenodd" d="M5.99996 0C3.04337 0 0.666626 2.4363 0.666626 5.41667C0.666626 6.93413 1.51001 8.7194 2.50244 10.0841C3.00751 10.7787 3.57847 11.4029 4.15137 11.861C4.69963 12.2993 5.35023 12.6667 5.99996 12.6667C6.64969 12.6667 7.30029 12.2993 7.84856 11.861C8.42143 11.4029 8.99243 10.7787 9.49749 10.0841C10.4899 8.7194 11.3333 6.93413 11.3333 5.41667C11.3333 2.4363 8.95656 0 5.99996 0ZM3.99996 5.33333C3.99996 4.22877 4.89536 3.33333 5.99996 3.33333C7.10456 3.33333 7.99996 4.22877 7.99996 5.33333C7.99996 6.4379 7.10456 7.33333 5.99996 7.33333C4.89536 7.33333 3.99996 6.4379 3.99996 5.33333Z" fill="#4B5563"/>
</svg>
