<svg width="16" height="15" viewBox="0 0 16 15" fill="none" xmlns="http://www.w3.org/2000/svg">
<path d="M7.438 0.502965C7.63237 -0.0168431 8.36763 -0.0168419 8.562 0.502966L10.0827 4.56997C10.1671 4.79548 10.378 4.94874 10.6186 4.95925L14.9564 5.1488C15.5109 5.17303 15.7381 5.87229 15.3038 6.21778L11.9058 8.92087C11.7173 9.07075 11.6368 9.31874 11.7011 9.55075L12.8613 13.7349C13.0096 14.2697 12.4148 14.7018 11.952 14.3956L8.33114 11.9992C8.13038 11.8663 7.86962 11.8663 7.66886 11.9992L4.04802 14.3956C3.58523 14.7018 2.9904 14.2697 3.13869 13.7349L4.2989 9.55075C4.36323 9.31874 4.28265 9.07075 4.09424 8.92087L0.69623 6.21778C0.261927 5.87229 0.489133 5.17303 1.04356 5.1488L5.38145 4.95925C5.62198 4.94874 5.83293 4.79547 5.91725 4.56997L7.438 0.502965Z" fill="#1F2A37"/>
</svg>
