<svg width="16" height="15" viewBox="0 0 16 15" fill="none" xmlns="http://www.w3.org/2000/svg">
<path d="M7.03542 0.502965C7.22979 -0.0168431 7.96504 -0.0168419 8.15941 0.502966L9.68016 4.56997C9.76448 4.79548 9.97544 4.94874 10.216 4.95925L14.5539 5.1488C15.1083 5.17303 15.3355 5.87229 14.9012 6.21778L11.5032 8.92087C11.3148 9.07075 11.2342 9.31874 11.2985 9.55075L12.4587 13.7349C12.607 14.2697 12.0122 14.7018 11.5494 14.3956L7.92856 11.9992C7.72779 11.8663 7.46704 11.8663 7.26627 11.9992L3.64543 14.3956C3.18265 14.7018 2.58781 14.2697 2.7361 13.7349L3.89631 9.55075C3.96064 9.31874 3.88007 9.07075 3.69165 8.92087L0.293642 6.21778C-0.140661 5.87229 0.0865456 5.17303 0.640976 5.1488L4.97886 4.95925C5.21939 4.94874 5.43034 4.79547 5.51466 4.56997L7.03542 0.502965Z" fill="#E5E7EB"/>
</svg>
